<svg width="16" height="16" viewBox="0 0 16 16" fill="none" xmlns="http://www.w3.org/2000/svg">
<g clip-path="url(#clip0_21_2)">
<mask id="mask0_21_2" style="mask-type:luminance" maskUnits="userSpaceOnUse" x="0" y="0" width="16" height="16">
<path d="M16 0H0V16H16V0Z" fill="white"/>
</mask>
<g mask="url(#mask0_21_2)">
<path d="M7.99902 16.0002C12.4173 16.0002 15.999 12.4185 15.999 8.00024C15.999 3.58197 12.4173 0.000244141 7.99902 0.000244141C3.58075 0.000244141 -0.000976562 3.58197 -0.000976562 8.00024C-0.000976562 12.4185 3.58075 16.0002 7.99902 16.0002Z" fill="#7B1AF7"/>
<path d="M4.52538 8.17306L9.85872 3.5773C10.0911 3.42847 10.3126 3.5773 10.1708 3.83261L8.46865 7.18015H11.5041C11.5041 7.18015 11.9864 7.18015 11.5041 7.57732L6.25588 12.2014C5.88708 12.5135 5.63177 12.3433 5.88708 11.861L7.53247 8.59859H4.52538C4.52538 8.59859 4.04311 8.59859 4.52538 8.17306Z" fill="white"/>
</g>
</g>
<defs>
<clipPath id="clip0_21_2">
<rect width="16" height="16" fill="white"/>
</clipPath>
</defs>
</svg>